<mxfile host="app.diagrams.net" modified="2023-06-16T17:48:55.054Z" agent="Mozilla/5.0 (Windows NT 10.0; Win64; x64) AppleWebKit/537.36 (KHTML, like Gecko) Chrome/114.0.0.0 Safari/537.36" etag="i0FKeHN5XuV5nHpjmXWR" version="21.4.0" type="github">
  <diagram name="Page-1" id="5bOChMjXbygK2O0Dg0Uu">
    <mxGraphModel dx="2333" dy="1384" grid="1" gridSize="10" guides="1" tooltips="1" connect="1" arrows="1" fold="1" page="1" pageScale="1" pageWidth="850" pageHeight="1100" math="0" shadow="0">
      <root>
        <mxCell id="0" />
        <mxCell id="1" parent="0" />
        <mxCell id="NmS5Nmx9VsPLo_e7xaQ6-14" value="" style="shape=table;startSize=0;container=1;collapsible=0;childLayout=tableLayout;fontSize=16;" vertex="1" parent="1">
          <mxGeometry x="240" y="80" width="582" height="120" as="geometry" />
        </mxCell>
        <mxCell id="NmS5Nmx9VsPLo_e7xaQ6-15" value="" style="shape=tableRow;horizontal=0;startSize=0;swimlaneHead=0;swimlaneBody=0;strokeColor=inherit;top=0;left=0;bottom=0;right=0;collapsible=0;dropTarget=0;fillColor=none;points=[[0,0.5],[1,0.5]];portConstraint=eastwest;fontSize=16;" vertex="1" parent="NmS5Nmx9VsPLo_e7xaQ6-14">
          <mxGeometry width="582" height="60" as="geometry" />
        </mxCell>
        <mxCell id="NmS5Nmx9VsPLo_e7xaQ6-34" value="96" style="shape=partialRectangle;html=1;whiteSpace=wrap;connectable=0;strokeColor=inherit;overflow=hidden;fillColor=none;top=0;left=0;bottom=0;right=0;pointerEvents=1;fontSize=16;" vertex="1" parent="NmS5Nmx9VsPLo_e7xaQ6-15">
          <mxGeometry width="116" height="60" as="geometry">
            <mxRectangle width="116" height="60" as="alternateBounds" />
          </mxGeometry>
        </mxCell>
        <mxCell id="NmS5Nmx9VsPLo_e7xaQ6-33" value="42" style="shape=partialRectangle;html=1;whiteSpace=wrap;connectable=0;strokeColor=inherit;overflow=hidden;fillColor=none;top=0;left=0;bottom=0;right=0;pointerEvents=1;fontSize=16;" vertex="1" parent="NmS5Nmx9VsPLo_e7xaQ6-15">
          <mxGeometry x="116" width="116" height="60" as="geometry">
            <mxRectangle width="116" height="60" as="alternateBounds" />
          </mxGeometry>
        </mxCell>
        <mxCell id="NmS5Nmx9VsPLo_e7xaQ6-16" value="23" style="shape=partialRectangle;html=1;whiteSpace=wrap;connectable=0;strokeColor=inherit;overflow=hidden;fillColor=none;top=0;left=0;bottom=0;right=0;pointerEvents=1;fontSize=16;" vertex="1" parent="NmS5Nmx9VsPLo_e7xaQ6-15">
          <mxGeometry x="232" width="116" height="60" as="geometry">
            <mxRectangle width="116" height="60" as="alternateBounds" />
          </mxGeometry>
        </mxCell>
        <mxCell id="NmS5Nmx9VsPLo_e7xaQ6-17" value="4" style="shape=partialRectangle;html=1;whiteSpace=wrap;connectable=0;strokeColor=inherit;overflow=hidden;fillColor=none;top=0;left=0;bottom=0;right=0;pointerEvents=1;fontSize=16;" vertex="1" parent="NmS5Nmx9VsPLo_e7xaQ6-15">
          <mxGeometry x="348" width="118" height="60" as="geometry">
            <mxRectangle width="118" height="60" as="alternateBounds" />
          </mxGeometry>
        </mxCell>
        <mxCell id="NmS5Nmx9VsPLo_e7xaQ6-18" value="21" style="shape=partialRectangle;html=1;whiteSpace=wrap;connectable=0;strokeColor=inherit;overflow=hidden;fillColor=none;top=0;left=0;bottom=0;right=0;pointerEvents=1;fontSize=16;" vertex="1" parent="NmS5Nmx9VsPLo_e7xaQ6-15">
          <mxGeometry x="466" width="116" height="60" as="geometry">
            <mxRectangle width="116" height="60" as="alternateBounds" />
          </mxGeometry>
        </mxCell>
        <mxCell id="NmS5Nmx9VsPLo_e7xaQ6-35" value="" style="shape=tableRow;horizontal=0;startSize=0;swimlaneHead=0;swimlaneBody=0;strokeColor=inherit;top=0;left=0;bottom=0;right=0;collapsible=0;dropTarget=0;fillColor=none;points=[[0,0.5],[1,0.5]];portConstraint=eastwest;fontSize=16;" vertex="1" parent="NmS5Nmx9VsPLo_e7xaQ6-14">
          <mxGeometry y="60" width="582" height="60" as="geometry" />
        </mxCell>
        <mxCell id="NmS5Nmx9VsPLo_e7xaQ6-36" value="&lt;font color=&quot;#3333ff&quot;&gt;0&lt;/font&gt;" style="shape=partialRectangle;html=1;whiteSpace=wrap;connectable=0;strokeColor=inherit;overflow=hidden;fillColor=none;top=0;left=0;bottom=0;right=0;pointerEvents=1;fontSize=16;" vertex="1" parent="NmS5Nmx9VsPLo_e7xaQ6-35">
          <mxGeometry width="116" height="60" as="geometry">
            <mxRectangle width="116" height="60" as="alternateBounds" />
          </mxGeometry>
        </mxCell>
        <mxCell id="NmS5Nmx9VsPLo_e7xaQ6-37" value="&lt;font color=&quot;#3333ff&quot;&gt;1&lt;/font&gt;" style="shape=partialRectangle;html=1;whiteSpace=wrap;connectable=0;strokeColor=inherit;overflow=hidden;fillColor=none;top=0;left=0;bottom=0;right=0;pointerEvents=1;fontSize=16;" vertex="1" parent="NmS5Nmx9VsPLo_e7xaQ6-35">
          <mxGeometry x="116" width="116" height="60" as="geometry">
            <mxRectangle width="116" height="60" as="alternateBounds" />
          </mxGeometry>
        </mxCell>
        <mxCell id="NmS5Nmx9VsPLo_e7xaQ6-38" value="&lt;font color=&quot;#3333ff&quot;&gt;2&lt;/font&gt;" style="shape=partialRectangle;html=1;whiteSpace=wrap;connectable=0;strokeColor=inherit;overflow=hidden;fillColor=none;top=0;left=0;bottom=0;right=0;pointerEvents=1;fontSize=16;" vertex="1" parent="NmS5Nmx9VsPLo_e7xaQ6-35">
          <mxGeometry x="232" width="116" height="60" as="geometry">
            <mxRectangle width="116" height="60" as="alternateBounds" />
          </mxGeometry>
        </mxCell>
        <mxCell id="NmS5Nmx9VsPLo_e7xaQ6-39" value="&lt;font color=&quot;#3333ff&quot;&gt;3&lt;/font&gt;" style="shape=partialRectangle;html=1;whiteSpace=wrap;connectable=0;strokeColor=inherit;overflow=hidden;fillColor=none;top=0;left=0;bottom=0;right=0;pointerEvents=1;fontSize=16;" vertex="1" parent="NmS5Nmx9VsPLo_e7xaQ6-35">
          <mxGeometry x="348" width="118" height="60" as="geometry">
            <mxRectangle width="118" height="60" as="alternateBounds" />
          </mxGeometry>
        </mxCell>
        <mxCell id="NmS5Nmx9VsPLo_e7xaQ6-40" value="&lt;font color=&quot;#3333ff&quot;&gt;4&lt;/font&gt;" style="shape=partialRectangle;html=1;whiteSpace=wrap;connectable=0;strokeColor=inherit;overflow=hidden;fillColor=none;top=0;left=0;bottom=0;right=0;pointerEvents=1;fontSize=16;" vertex="1" parent="NmS5Nmx9VsPLo_e7xaQ6-35">
          <mxGeometry x="466" width="116" height="60" as="geometry">
            <mxRectangle width="116" height="60" as="alternateBounds" />
          </mxGeometry>
        </mxCell>
        <mxCell id="NmS5Nmx9VsPLo_e7xaQ6-41" value="&lt;p style=&quot;line-height: 160%;&quot;&gt;&lt;font style=&quot;font-size: 36px;&quot;&gt;List&lt;/font&gt;&lt;/p&gt;" style="text;html=1;align=center;verticalAlign=middle;resizable=0;points=[];autosize=1;strokeColor=none;fillColor=none;" vertex="1" parent="1">
          <mxGeometry x="90" y="80" width="80" height="60" as="geometry" />
        </mxCell>
        <mxCell id="NmS5Nmx9VsPLo_e7xaQ6-42" value="&lt;p style=&quot;line-height: 160%;&quot;&gt;&lt;span style=&quot;font-size: 36px;&quot;&gt;Index&lt;/span&gt;&lt;/p&gt;" style="text;html=1;align=center;verticalAlign=middle;resizable=0;points=[];autosize=1;strokeColor=none;fillColor=none;" vertex="1" parent="1">
          <mxGeometry x="85" y="150" width="110" height="60" as="geometry" />
        </mxCell>
        <mxCell id="NmS5Nmx9VsPLo_e7xaQ6-74" value="" style="shape=table;startSize=0;container=1;collapsible=0;childLayout=tableLayout;fontSize=16;movable=1;resizable=1;rotatable=1;deletable=1;editable=1;locked=0;connectable=1;strokeWidth=1;" vertex="1" parent="1">
          <mxGeometry x="130" y="440" width="670" height="180" as="geometry" />
        </mxCell>
        <mxCell id="NmS5Nmx9VsPLo_e7xaQ6-75" value="" style="shape=tableRow;horizontal=0;startSize=0;swimlaneHead=0;swimlaneBody=0;strokeColor=inherit;top=0;left=0;bottom=0;right=0;collapsible=0;dropTarget=0;fillColor=none;points=[[0,0.5],[1,0.5]];portConstraint=eastwest;fontSize=16;" vertex="1" parent="NmS5Nmx9VsPLo_e7xaQ6-74">
          <mxGeometry width="670" height="90" as="geometry" />
        </mxCell>
        <mxCell id="NmS5Nmx9VsPLo_e7xaQ6-76" value="" style="shape=partialRectangle;html=1;whiteSpace=wrap;connectable=0;strokeColor=inherit;overflow=hidden;fillColor=none;top=0;left=0;bottom=0;right=0;pointerEvents=1;fontSize=16;strokeWidth=5;" vertex="1" parent="NmS5Nmx9VsPLo_e7xaQ6-75">
          <mxGeometry width="223" height="90" as="geometry">
            <mxRectangle width="223" height="90" as="alternateBounds" />
          </mxGeometry>
        </mxCell>
        <mxCell id="NmS5Nmx9VsPLo_e7xaQ6-77" value="" style="shape=partialRectangle;html=1;whiteSpace=wrap;connectable=1;strokeColor=inherit;overflow=hidden;fillColor=none;top=0;left=0;bottom=0;right=0;pointerEvents=1;fontSize=16;movable=1;resizable=1;rotatable=1;deletable=1;editable=1;locked=0;" vertex="1" parent="NmS5Nmx9VsPLo_e7xaQ6-75">
          <mxGeometry x="223" width="224" height="90" as="geometry">
            <mxRectangle width="224" height="90" as="alternateBounds" />
          </mxGeometry>
        </mxCell>
        <mxCell id="NmS5Nmx9VsPLo_e7xaQ6-78" value="" style="shape=partialRectangle;html=1;whiteSpace=wrap;connectable=0;strokeColor=inherit;overflow=hidden;fillColor=none;top=0;left=0;bottom=0;right=0;pointerEvents=1;fontSize=16;" vertex="1" parent="NmS5Nmx9VsPLo_e7xaQ6-75">
          <mxGeometry x="447" width="223" height="90" as="geometry">
            <mxRectangle width="223" height="90" as="alternateBounds" />
          </mxGeometry>
        </mxCell>
        <mxCell id="NmS5Nmx9VsPLo_e7xaQ6-127" style="shape=tableRow;horizontal=0;startSize=0;swimlaneHead=0;swimlaneBody=0;strokeColor=inherit;top=0;left=0;bottom=0;right=0;collapsible=0;dropTarget=0;fillColor=none;points=[[0,0.5],[1,0.5]];portConstraint=eastwest;fontSize=16;" vertex="1" parent="NmS5Nmx9VsPLo_e7xaQ6-74">
          <mxGeometry y="90" width="670" height="90" as="geometry" />
        </mxCell>
        <mxCell id="NmS5Nmx9VsPLo_e7xaQ6-128" value="&lt;font color=&quot;#3333ff&quot;&gt;0&lt;/font&gt;" style="shape=partialRectangle;html=1;whiteSpace=wrap;connectable=0;strokeColor=inherit;overflow=hidden;fillColor=none;top=0;left=0;bottom=0;right=0;pointerEvents=1;fontSize=16;strokeWidth=5;" vertex="1" parent="NmS5Nmx9VsPLo_e7xaQ6-127">
          <mxGeometry width="223" height="90" as="geometry">
            <mxRectangle width="223" height="90" as="alternateBounds" />
          </mxGeometry>
        </mxCell>
        <mxCell id="NmS5Nmx9VsPLo_e7xaQ6-129" value="&lt;font color=&quot;#3333ff&quot;&gt;1&lt;/font&gt;" style="shape=partialRectangle;html=1;whiteSpace=wrap;connectable=1;strokeColor=inherit;overflow=hidden;fillColor=none;top=0;left=0;bottom=0;right=0;pointerEvents=1;fontSize=16;movable=1;resizable=1;rotatable=1;deletable=1;editable=1;locked=0;" vertex="1" parent="NmS5Nmx9VsPLo_e7xaQ6-127">
          <mxGeometry x="223" width="224" height="90" as="geometry">
            <mxRectangle width="224" height="90" as="alternateBounds" />
          </mxGeometry>
        </mxCell>
        <mxCell id="NmS5Nmx9VsPLo_e7xaQ6-130" value="&lt;font color=&quot;#3333ff&quot;&gt;2&lt;/font&gt;" style="shape=partialRectangle;html=1;whiteSpace=wrap;connectable=0;strokeColor=inherit;overflow=hidden;fillColor=none;top=0;left=0;bottom=0;right=0;pointerEvents=1;fontSize=16;" vertex="1" parent="NmS5Nmx9VsPLo_e7xaQ6-127">
          <mxGeometry x="447" width="223" height="90" as="geometry">
            <mxRectangle width="223" height="90" as="alternateBounds" />
          </mxGeometry>
        </mxCell>
        <mxCell id="NmS5Nmx9VsPLo_e7xaQ6-87" value="" style="shape=table;startSize=0;container=1;collapsible=0;childLayout=tableLayout;fontSize=16;" vertex="1" parent="1">
          <mxGeometry x="150" y="450" width="180" height="40" as="geometry" />
        </mxCell>
        <mxCell id="NmS5Nmx9VsPLo_e7xaQ6-88" value="" style="shape=tableRow;horizontal=0;startSize=0;swimlaneHead=0;swimlaneBody=0;strokeColor=inherit;top=0;left=0;bottom=0;right=0;collapsible=0;dropTarget=0;fillColor=none;points=[[0,0.5],[1,0.5]];portConstraint=eastwest;fontSize=16;" vertex="1" parent="NmS5Nmx9VsPLo_e7xaQ6-87">
          <mxGeometry width="180" height="40" as="geometry" />
        </mxCell>
        <mxCell id="NmS5Nmx9VsPLo_e7xaQ6-89" value="34" style="shape=partialRectangle;html=1;whiteSpace=wrap;connectable=0;strokeColor=inherit;overflow=hidden;fillColor=none;top=0;left=0;bottom=0;right=0;pointerEvents=1;fontSize=16;" vertex="1" parent="NmS5Nmx9VsPLo_e7xaQ6-88">
          <mxGeometry width="60" height="40" as="geometry">
            <mxRectangle width="60" height="40" as="alternateBounds" />
          </mxGeometry>
        </mxCell>
        <mxCell id="NmS5Nmx9VsPLo_e7xaQ6-90" value="4" style="shape=partialRectangle;html=1;whiteSpace=wrap;connectable=0;strokeColor=inherit;overflow=hidden;fillColor=none;top=0;left=0;bottom=0;right=0;pointerEvents=1;fontSize=16;" vertex="1" parent="NmS5Nmx9VsPLo_e7xaQ6-88">
          <mxGeometry x="60" width="60" height="40" as="geometry">
            <mxRectangle width="60" height="40" as="alternateBounds" />
          </mxGeometry>
        </mxCell>
        <mxCell id="NmS5Nmx9VsPLo_e7xaQ6-91" value="&quot;Hey&quot;" style="shape=partialRectangle;html=1;whiteSpace=wrap;connectable=0;strokeColor=inherit;overflow=hidden;fillColor=none;top=0;left=0;bottom=0;right=0;pointerEvents=1;fontSize=16;" vertex="1" parent="NmS5Nmx9VsPLo_e7xaQ6-88">
          <mxGeometry x="120" width="60" height="40" as="geometry">
            <mxRectangle width="60" height="40" as="alternateBounds" />
          </mxGeometry>
        </mxCell>
        <mxCell id="NmS5Nmx9VsPLo_e7xaQ6-111" value="" style="shape=table;startSize=0;container=1;collapsible=0;childLayout=tableLayout;fontSize=16;" vertex="1" parent="1">
          <mxGeometry x="410" y="450" width="120" height="40" as="geometry" />
        </mxCell>
        <mxCell id="NmS5Nmx9VsPLo_e7xaQ6-112" value="" style="shape=tableRow;horizontal=0;startSize=0;swimlaneHead=0;swimlaneBody=0;strokeColor=inherit;top=0;left=0;bottom=0;right=0;collapsible=0;dropTarget=0;fillColor=none;points=[[0,0.5],[1,0.5]];portConstraint=eastwest;fontSize=16;" vertex="1" parent="NmS5Nmx9VsPLo_e7xaQ6-111">
          <mxGeometry width="120" height="40" as="geometry" />
        </mxCell>
        <mxCell id="NmS5Nmx9VsPLo_e7xaQ6-113" value="9" style="shape=partialRectangle;html=1;whiteSpace=wrap;connectable=0;strokeColor=inherit;overflow=hidden;fillColor=none;top=0;left=0;bottom=0;right=0;pointerEvents=1;fontSize=16;" vertex="1" parent="NmS5Nmx9VsPLo_e7xaQ6-112">
          <mxGeometry width="60" height="40" as="geometry">
            <mxRectangle width="60" height="40" as="alternateBounds" />
          </mxGeometry>
        </mxCell>
        <mxCell id="NmS5Nmx9VsPLo_e7xaQ6-114" value="3" style="shape=partialRectangle;html=1;whiteSpace=wrap;connectable=0;strokeColor=inherit;overflow=hidden;fillColor=none;top=0;left=0;bottom=0;right=0;pointerEvents=1;fontSize=16;" vertex="1" parent="NmS5Nmx9VsPLo_e7xaQ6-112">
          <mxGeometry x="60" width="60" height="40" as="geometry">
            <mxRectangle width="60" height="40" as="alternateBounds" />
          </mxGeometry>
        </mxCell>
        <mxCell id="NmS5Nmx9VsPLo_e7xaQ6-121" value="" style="shape=table;startSize=0;container=1;collapsible=0;childLayout=tableLayout;fontSize=16;" vertex="1" parent="1">
          <mxGeometry x="600" y="450" width="180" height="40" as="geometry" />
        </mxCell>
        <mxCell id="NmS5Nmx9VsPLo_e7xaQ6-122" value="" style="shape=tableRow;horizontal=0;startSize=0;swimlaneHead=0;swimlaneBody=0;strokeColor=inherit;top=0;left=0;bottom=0;right=0;collapsible=0;dropTarget=0;fillColor=none;points=[[0,0.5],[1,0.5]];portConstraint=eastwest;fontSize=16;" vertex="1" parent="NmS5Nmx9VsPLo_e7xaQ6-121">
          <mxGeometry width="180" height="40" as="geometry" />
        </mxCell>
        <mxCell id="NmS5Nmx9VsPLo_e7xaQ6-123" value="3.14" style="shape=partialRectangle;html=1;whiteSpace=wrap;connectable=0;strokeColor=inherit;overflow=hidden;fillColor=none;top=0;left=0;bottom=0;right=0;pointerEvents=1;fontSize=16;" vertex="1" parent="NmS5Nmx9VsPLo_e7xaQ6-122">
          <mxGeometry width="60" height="40" as="geometry">
            <mxRectangle width="60" height="40" as="alternateBounds" />
          </mxGeometry>
        </mxCell>
        <mxCell id="NmS5Nmx9VsPLo_e7xaQ6-124" value="7" style="shape=partialRectangle;html=1;whiteSpace=wrap;connectable=0;strokeColor=inherit;overflow=hidden;fillColor=none;top=0;left=0;bottom=0;right=0;pointerEvents=1;fontSize=16;" vertex="1" parent="NmS5Nmx9VsPLo_e7xaQ6-122">
          <mxGeometry x="60" width="60" height="40" as="geometry">
            <mxRectangle width="60" height="40" as="alternateBounds" />
          </mxGeometry>
        </mxCell>
        <mxCell id="NmS5Nmx9VsPLo_e7xaQ6-125" value="&quot;Hello&quot;" style="shape=partialRectangle;html=1;whiteSpace=wrap;connectable=0;strokeColor=inherit;overflow=hidden;fillColor=none;top=0;left=0;bottom=0;right=0;pointerEvents=1;fontSize=16;" vertex="1" parent="NmS5Nmx9VsPLo_e7xaQ6-122">
          <mxGeometry x="120" width="60" height="40" as="geometry">
            <mxRectangle width="60" height="40" as="alternateBounds" />
          </mxGeometry>
        </mxCell>
        <mxCell id="NmS5Nmx9VsPLo_e7xaQ6-126" value="&lt;p style=&quot;line-height: 160%;&quot;&gt;&lt;font style=&quot;font-size: 36px;&quot;&gt;Nested&amp;nbsp;&lt;/font&gt;&lt;span style=&quot;font-size: 36px; background-color: initial;&quot;&gt;List&lt;/span&gt;&lt;/p&gt;" style="text;html=1;align=center;verticalAlign=middle;resizable=0;points=[];autosize=1;strokeColor=none;fillColor=none;" vertex="1" parent="1">
          <mxGeometry x="130" y="350" width="200" height="60" as="geometry" />
        </mxCell>
        <mxCell id="NmS5Nmx9VsPLo_e7xaQ6-131" value="" style="shape=singleArrow;direction=south;whiteSpace=wrap;html=1;" vertex="1" parent="1">
          <mxGeometry x="650" y="620" width="60" height="100" as="geometry" />
        </mxCell>
        <mxCell id="NmS5Nmx9VsPLo_e7xaQ6-132" value="" style="shape=table;startSize=0;container=1;collapsible=0;childLayout=tableLayout;fontSize=16;" vertex="1" parent="1">
          <mxGeometry x="590" y="720" width="180" height="80" as="geometry" />
        </mxCell>
        <mxCell id="NmS5Nmx9VsPLo_e7xaQ6-133" value="" style="shape=tableRow;horizontal=0;startSize=0;swimlaneHead=0;swimlaneBody=0;strokeColor=inherit;top=0;left=0;bottom=0;right=0;collapsible=0;dropTarget=0;fillColor=none;points=[[0,0.5],[1,0.5]];portConstraint=eastwest;fontSize=16;" vertex="1" parent="NmS5Nmx9VsPLo_e7xaQ6-132">
          <mxGeometry width="180" height="40" as="geometry" />
        </mxCell>
        <mxCell id="NmS5Nmx9VsPLo_e7xaQ6-134" value="3.14" style="shape=partialRectangle;html=1;whiteSpace=wrap;connectable=0;strokeColor=inherit;overflow=hidden;fillColor=none;top=0;left=0;bottom=0;right=0;pointerEvents=1;fontSize=16;" vertex="1" parent="NmS5Nmx9VsPLo_e7xaQ6-133">
          <mxGeometry width="60" height="40" as="geometry">
            <mxRectangle width="60" height="40" as="alternateBounds" />
          </mxGeometry>
        </mxCell>
        <mxCell id="NmS5Nmx9VsPLo_e7xaQ6-135" value="7" style="shape=partialRectangle;html=1;whiteSpace=wrap;connectable=0;strokeColor=inherit;overflow=hidden;fillColor=none;top=0;left=0;bottom=0;right=0;pointerEvents=1;fontSize=16;" vertex="1" parent="NmS5Nmx9VsPLo_e7xaQ6-133">
          <mxGeometry x="60" width="60" height="40" as="geometry">
            <mxRectangle width="60" height="40" as="alternateBounds" />
          </mxGeometry>
        </mxCell>
        <mxCell id="NmS5Nmx9VsPLo_e7xaQ6-136" value="&quot;Hello&quot;" style="shape=partialRectangle;html=1;whiteSpace=wrap;connectable=0;strokeColor=inherit;overflow=hidden;fillColor=none;top=0;left=0;bottom=0;right=0;pointerEvents=1;fontSize=16;" vertex="1" parent="NmS5Nmx9VsPLo_e7xaQ6-133">
          <mxGeometry x="120" width="60" height="40" as="geometry">
            <mxRectangle width="60" height="40" as="alternateBounds" />
          </mxGeometry>
        </mxCell>
        <mxCell id="NmS5Nmx9VsPLo_e7xaQ6-137" style="shape=tableRow;horizontal=0;startSize=0;swimlaneHead=0;swimlaneBody=0;strokeColor=inherit;top=0;left=0;bottom=0;right=0;collapsible=0;dropTarget=0;fillColor=none;points=[[0,0.5],[1,0.5]];portConstraint=eastwest;fontSize=16;" vertex="1" parent="NmS5Nmx9VsPLo_e7xaQ6-132">
          <mxGeometry y="40" width="180" height="40" as="geometry" />
        </mxCell>
        <mxCell id="NmS5Nmx9VsPLo_e7xaQ6-138" value="&lt;font color=&quot;#3333ff&quot;&gt;0&lt;/font&gt;" style="shape=partialRectangle;html=1;whiteSpace=wrap;connectable=0;strokeColor=inherit;overflow=hidden;fillColor=none;top=0;left=0;bottom=0;right=0;pointerEvents=1;fontSize=16;" vertex="1" parent="NmS5Nmx9VsPLo_e7xaQ6-137">
          <mxGeometry width="60" height="40" as="geometry">
            <mxRectangle width="60" height="40" as="alternateBounds" />
          </mxGeometry>
        </mxCell>
        <mxCell id="NmS5Nmx9VsPLo_e7xaQ6-139" value="1" style="shape=partialRectangle;html=1;whiteSpace=wrap;connectable=0;strokeColor=inherit;overflow=hidden;fillColor=none;top=0;left=0;bottom=0;right=0;pointerEvents=1;fontSize=16;fontColor=#3333FF;" vertex="1" parent="NmS5Nmx9VsPLo_e7xaQ6-137">
          <mxGeometry x="60" width="60" height="40" as="geometry">
            <mxRectangle width="60" height="40" as="alternateBounds" />
          </mxGeometry>
        </mxCell>
        <mxCell id="NmS5Nmx9VsPLo_e7xaQ6-140" value="&lt;font color=&quot;#3333ff&quot;&gt;2&lt;/font&gt;" style="shape=partialRectangle;html=1;whiteSpace=wrap;connectable=0;strokeColor=inherit;overflow=hidden;fillColor=none;top=0;left=0;bottom=0;right=0;pointerEvents=1;fontSize=16;" vertex="1" parent="NmS5Nmx9VsPLo_e7xaQ6-137">
          <mxGeometry x="120" width="60" height="40" as="geometry">
            <mxRectangle width="60" height="40" as="alternateBounds" />
          </mxGeometry>
        </mxCell>
        <mxCell id="NmS5Nmx9VsPLo_e7xaQ6-141" value="" style="shape=singleArrow;direction=south;whiteSpace=wrap;html=1;" vertex="1" parent="1">
          <mxGeometry x="720" y="800" width="30" height="60" as="geometry" />
        </mxCell>
        <mxCell id="NmS5Nmx9VsPLo_e7xaQ6-142" value="&lt;font style=&quot;font-size: 18px;&quot;&gt;&quot;Hello&quot;&lt;/font&gt;" style="text;html=1;align=center;verticalAlign=middle;resizable=0;points=[];autosize=1;strokeColor=none;fillColor=none;" vertex="1" parent="1">
          <mxGeometry x="695" y="860" width="80" height="40" as="geometry" />
        </mxCell>
        <mxCell id="NmS5Nmx9VsPLo_e7xaQ6-144" value="&lt;font style=&quot;font-size: 17px;&quot;&gt;© ChinarQuantumAI 2023&lt;/font&gt;" style="text;html=1;align=center;verticalAlign=middle;resizable=0;points=[];autosize=1;strokeColor=none;fillColor=none;" vertex="1" parent="1">
          <mxGeometry x="602" y="1060" width="220" height="30" as="geometry" />
        </mxCell>
      </root>
    </mxGraphModel>
  </diagram>
</mxfile>
